# xmcd
#
# Track frame offsets: 
#        150
#        12743
#        24413
#        40830
#        52995
#        70613
#        86488
#        108775
#        122468
#        136563
#        148863
#        161960
#        172513
#        190803
#        202375
#        212000
#
# Disc length: 3017 seconds
#
# Revision: 1
# Processed by: cddbd v1.4PL0 Copyright (c) Steve Scherf et al.
# Submitted via: ExactAudioCopy v0.90b4
#
DISCID=d50bc710
DTITLE=Nina Simone - I Put A Spell On You
DYEAR=1992
DGENRE=Vocal
TTITLE0=Don´t Let Me Be Misunderstood
TTITLE1=I Put A Spell On You
TTITLE2=Ne Me Quitte Pas
TTITLE3=Nobody Knows You When You´re Down And Out
TTITLE4=Plain Goldring
TTITLE5=Strange Fruit
TTITLE6=Mississippi Goddam
TTITLE7=Gimme Some
TTITLE8=Central Park Blues
TTITLE9=Trouble In Mind
TTITLE10=Don´t Take All Night
TTITLE11=The Laziest Gai In Town
TTITLE12=For All We Know
TTITLE13=I Love You Porgy
TTITLE14=Take Care Of Business
TTITLE15=He´s Got The Whole World In His Hand
EXTD=
EXTT0=
EXTT1=
EXTT2=
EXTT3=
EXTT4=
EXTT5=
EXTT6=
EXTT7=
EXTT8=
EXTT9=
EXTT10=
EXTT11=
EXTT12=
EXTT13=
EXTT14=
EXTT15=
PLAYORDER=
